<svg xmlns="http://www.w3.org/2000/svg" width="38.521" height="40.281" viewBox="0 0 38.521 40.281">
  <g id="diamond" transform="translate(-11.187)">
    <path id="Path_9" data-name="Path 9" d="M243.36,3.54V1.18a1.18,1.18,0,0,0-2.36,0V3.54a1.18,1.18,0,0,0,2.36,0Z" transform="translate(-211.733)" fill="#f26b3e"/>
    <path id="Path_10" data-name="Path 10" d="M116.888,32.493a1.18,1.18,0,0,0,.571-1.568l-1-2.139a1.18,1.18,0,0,0-2.139,1l1,2.139A1.18,1.18,0,0,0,116.888,32.493Z" transform="translate(-94.919 -25.893)" fill="#f26b3e"/>
    <path id="Path_11" data-name="Path 11" d="M14.934,109.956l-1.808-1.517a1.18,1.18,0,0,0-1.517,1.808l1.808,1.517a1.18,1.18,0,0,0,1.517-1.808Z" transform="translate(0 -99.654)" fill="#f26b3e"/>
    <path id="Path_12" data-name="Path 12" d="M357.352,31.923l1-2.139a1.18,1.18,0,0,0-2.139-1l-1,2.139a1.18,1.18,0,0,0,2.139,1Z" transform="translate(-316.858 -25.893)" fill="#f26b3e"/>
    <path id="Path_13" data-name="Path 13" d="M451.724,108.585a1.18,1.18,0,0,0-1.663-.145l-1.808,1.517a1.18,1.18,0,0,0,1.517,1.808l1.808-1.517A1.18,1.18,0,0,0,451.724,108.585Z" transform="translate(-402.293 -99.654)" fill="#f26b3e"/>
    <path id="Path_14" data-name="Path 14" d="M36.921,151a1.209,1.209,0,0,0-.993.535l-4.714,7.071a1.186,1.186,0,0,0,.092,1.43L47.827,179a1.18,1.18,0,0,0,1.779,0l16.521-18.96a1.185,1.185,0,0,0,.092-1.43l-4.714-7.071a1.185,1.185,0,0,0-.988-.535Zm26.112,7.081H58l2.515-3.773Zm-18.548,0,4.232-4.232,4.232,4.232Zm9.609,2.36-5.378,14.341-5.378-14.341Zm-8.721,12.147L34.789,160.441h6.029Zm11.242-12.147h6.029L52.06,172.588Zm-1-3.032-4.048-4.048h6.747Zm-13.794,0-2.7-4.048h6.747Zm-2.388.672H34.4l2.515-3.773Z" transform="translate(-18.27 -139.12)" fill="#f26b3e"/>
  </g>
</svg>
