<svg xmlns="http://www.w3.org/2000/svg" width="81.154" height="81.103" viewBox="0 0 81.154 81.103">
  <g id="money-flow-transparent" transform="translate(0 -0.158)" opacity="0.03">
    <path id="Path_15" data-name="Path 15" d="M18.559,69.719l-1.3-9.163a2.385,2.385,0,0,0-4.723.668l.29,2.052A35.861,35.861,0,0,1,7.016,53.021C-2.653,26.587,20.7-.074,47.92,5.734a2.385,2.385,0,0,0,1-4.665C18.175-5.49-8.489,24.518,2.536,54.66a40.638,40.638,0,0,0,6.573,11.6l-2.3-.443a2.385,2.385,0,0,0-.9,4.684l9.64,1.852a2.394,2.394,0,0,0,3.015-2.637Z" transform="translate(0 0)"/>
    <path id="Path_16" data-name="Path 16" d="M239.465,73.522a40.639,40.639,0,0,0-6.573-11.6l2.3.443a2.385,2.385,0,0,0,.9-4.684l-9.641-1.852a2.393,2.393,0,0,0-3.013,2.638l1.3,9.163a2.385,2.385,0,1,0,4.723-.668l-.29-2.052a35.741,35.741,0,0,1-35.091,57.543,2.385,2.385,0,1,0-1,4.665,40.491,40.491,0,0,0,46.38-53.591Z" transform="translate(-160.796 -46.738)"/>
    <path id="Path_17" data-name="Path 17" d="M149.307,125.071a24.724,24.724,0,1,0-24.724,24.766A24.773,24.773,0,0,0,149.307,125.071Zm-44.678,0a19.954,19.954,0,1,1,19.954,20A20,20,0,0,1,104.629,125.071Z" transform="translate(-83.981 -84.223)"/>
    <path id="Path_18" data-name="Path 18" d="M208.052,185.985v-1.991a6.9,6.9,0,1,0,.122-13.791H203.16a2.125,2.125,0,1,1,.033-4.251h4.8a3.211,3.211,0,0,1,2.288,1.042,2.385,2.385,0,0,0,3.483-3.259,8,8,0,0,0-5.713-2.553v-1.992a2.385,2.385,0,1,0-4.77,0v1.991a6.9,6.9,0,1,0-.122,13.791h5.013a2.125,2.125,0,0,1,0,4.251H202.9a3.239,3.239,0,0,1-1.781-.607,2.385,2.385,0,1,0-2.722,3.917,7.963,7.963,0,0,0,4.882,1.46v1.991a2.385,2.385,0,1,0,4.77,0Z" transform="translate(-165.064 -131.74)"/>
  </g>
</svg>
