<svg xmlns="http://www.w3.org/2000/svg" width="40.442" height="40.417" viewBox="0 0 40.442 40.417">
  <g id="money-flow" transform="translate(0 -0.158)">
    <path id="Path_15" data-name="Path 15" d="M9.248,34.823,8.6,30.257a1.189,1.189,0,1,0-2.354.333l.145,1.023A17.826,17.826,0,0,1,23.88,2.936a1.189,1.189,0,1,0,.5-2.325A20.2,20.2,0,0,0,4.539,33.1L3.391,32.88a1.189,1.189,0,0,0-.449,2.334l4.8.923a1.193,1.193,0,0,0,1.5-1.314Z" transform="translate(0 0)" fill="#f26b3e"/>
    <path id="Path_16" data-name="Path 16" d="M215.251,64.6a20.252,20.252,0,0,0-3.276-5.782l1.149.221a1.189,1.189,0,1,0,.449-2.334l-4.8-.923a1.192,1.192,0,0,0-1.5,1.314l.646,4.566a1.189,1.189,0,1,0,2.354-.333l-.145-1.023a17.811,17.811,0,0,1-17.487,28.676,1.189,1.189,0,1,0-.5,2.325A20.178,20.178,0,0,0,215.251,64.6Z" transform="translate(-176.047 -51.171)" fill="#f26b3e"/>
    <path id="Path_17" data-name="Path 17" d="M124.5,112.647a12.321,12.321,0,1,0-12.321,12.342A12.345,12.345,0,0,0,124.5,112.647Zm-22.265,0a9.944,9.944,0,1,1,9.944,9.964A9.965,9.965,0,0,1,102.236,112.647Z" transform="translate(-91.946 -92.212)" fill="#f26b3e"/>
    <path id="Path_18" data-name="Path 18" d="M202.143,171.347v-.992a3.437,3.437,0,1,0,.061-6.873h-2.5a1.059,1.059,0,1,1,.017-2.118h2.392a1.6,1.6,0,0,1,1.14.519,1.189,1.189,0,0,0,1.736-1.624,3.987,3.987,0,0,0-2.847-1.272v-.993a1.189,1.189,0,1,0-2.377,0v.992a3.436,3.436,0,1,0-.061,6.873h2.5a1.059,1.059,0,0,1,0,2.118h-2.627a1.614,1.614,0,0,1-.887-.3,1.189,1.189,0,1,0-1.357,1.952,3.968,3.968,0,0,0,2.433.727v.992a1.189,1.189,0,1,0,2.377,0Z" transform="translate(-180.721 -144.236)" fill="#f26b3e"/>
  </g>
</svg>
