<svg xmlns="http://www.w3.org/2000/svg" width="40.701" height="40.697" viewBox="0 0 40.701 40.697">
  <g id="payment-method" transform="translate(0 -0.023)">
    <g id="Group_27" data-name="Group 27" transform="translate(12.143 30.535)">
      <g id="Group_26" data-name="Group 26">
        <path id="Path_19" data-name="Path 19" d="M154.324,384.5a.828.828,0,0,0-.045-.149.806.806,0,0,0-.073-.137.773.773,0,0,0-.219-.219.781.781,0,0,0-.138-.073.748.748,0,0,0-.149-.045.783.783,0,0,0-.31,0,.772.772,0,0,0-.149.045.8.8,0,0,0-.137.073.773.773,0,0,0-.219.219.753.753,0,0,0-.073.137.77.77,0,0,0-.045.149.764.764,0,0,0,0,.31.747.747,0,0,0,.045.149.735.735,0,0,0,.073.138.773.773,0,0,0,.219.219.8.8,0,0,0,.137.073.77.77,0,0,0,.149.045.765.765,0,0,0,.31,0,.746.746,0,0,0,.149-.045.784.784,0,0,0,.138-.073.773.773,0,0,0,.219-.219.784.784,0,0,0,.073-.138.8.8,0,0,0,.045-.149.764.764,0,0,0,0-.31Z" transform="translate(-152.75 -383.857)" fill="#f26b3e"/>
      </g>
    </g>
    <g id="Group_29" data-name="Group 29" transform="translate(0 24.658)">
      <g id="Group_28" data-name="Group 28">
        <path id="Path_20" data-name="Path 20" d="M36.566,316.684l-.01-.024c-.732-1.712-2.448-2.345-4.478-1.651L26.54,316.54a3.63,3.63,0,0,0-2.248-2.214l-.021-.007-6.088-2.066a6.279,6.279,0,0,0-5.066-2.331A6.357,6.357,0,0,0,8.153,312.9H.795a.8.8,0,0,0-.795.795v10.022a.8.8,0,0,0,.795.795H5.521a.8.8,0,0,0,.795-.795v-.686H8.533a.8.8,0,0,0,.795-.795v-.229a5.636,5.636,0,0,1,2.9,1.042,48.106,48.106,0,0,0,4.776,2.438l.035.015a7.136,7.136,0,0,0,2.558.482,6.336,6.336,0,0,0,2.634-.564l12.241-4.383c.022-.008.043-.017.064-.026A3.393,3.393,0,0,0,36.566,316.684Zm-31.84,6.238H1.59v-8.432H4.726Zm3.011-1.481H6.316v-6.951H7.738ZM33.9,319.553l-12.236,4.381-.036.014-.032.014a5.152,5.152,0,0,1-3.959.067,46.04,46.04,0,0,1-4.615-2.358,7.155,7.155,0,0,0-3.7-1.258v-6.4a4.909,4.909,0,0,1,3.79-2.5,4.587,4.587,0,0,1,3.891,1.828.8.8,0,0,0,.422.336l6.318,2.144a1.784,1.784,0,0,1,1.3,2.1,1.549,1.549,0,0,1-1.9,1.069l-7.122-2.257a.795.795,0,0,0-.48,1.516l7.134,2.261.023.007a3.12,3.12,0,0,0,2.386-.277,3.118,3.118,0,0,0,1.491-1.883q.027-.1.049-.193l5.969-1.654c.862-.294,1.994-.4,2.5.76C35.611,318.635,34.256,319.385,33.9,319.553Z" transform="translate(0 -309.922)" fill="#f26b3e"/>
      </g>
    </g>
    <g id="Group_31" data-name="Group 31" transform="translate(26.968 9.839)">
      <g id="Group_30" data-name="Group 30">
        <path id="Path_21" data-name="Path 21" d="M340.825,124.138a.774.774,0,0,0-.046-.149.807.807,0,0,0-.172-.258.763.763,0,0,0-.121-.1.809.809,0,0,0-.137-.073.792.792,0,0,0-.459-.045.747.747,0,0,0-.149.045.785.785,0,0,0-.138.073.772.772,0,0,0-.219.219.81.81,0,0,0-.073.137.77.77,0,0,0-.045.149.762.762,0,0,0,0,.31.746.746,0,0,0,.045.149.788.788,0,0,0,.073.138.772.772,0,0,0,.219.219.784.784,0,0,0,.138.073.8.8,0,0,0,.149.045.783.783,0,0,0,.155.016.8.8,0,0,0,.156-.016.843.843,0,0,0,.149-.045.808.808,0,0,0,.137-.073.773.773,0,0,0,.219-.219.738.738,0,0,0,.073-.138.75.75,0,0,0,.046-.149.8.8,0,0,0,0-.31Z" transform="translate(-339.25 -123.498)" fill="#f26b3e"/>
      </g>
    </g>
    <g id="Group_33" data-name="Group 33" transform="translate(2.36 0.023)">
      <g id="Group_32" data-name="Group 32">
        <path id="Path_22" data-name="Path 22" d="M67.236,2.716H62.51a.8.8,0,0,0-.795.795V4.2H59.5a.8.8,0,0,0-.795.795v.229a5.636,5.636,0,0,1-2.9-1.042A48.1,48.1,0,0,0,51.024,1.74l-.035-.015a6.763,6.763,0,0,0-5.191.082L42.6,2.952,39.9.256a.8.8,0,0,0-1.124,0L29.927,9.108a.788.788,0,0,0,0,1.124L45.053,25.359a.859.859,0,0,0,1.124,0l8.082-8.082c.21.018.428.028.654.028a6.357,6.357,0,0,0,4.965-2.978h7.358a.8.8,0,0,0,.795-.795V3.51A.8.8,0,0,0,67.236,2.716Zm-27.9-.773,1.812,1.812a3.466,3.466,0,0,1-3.624,0Zm-5.916,9.54L31.613,9.67l1.812-1.812a3.466,3.466,0,0,1,0,3.624Zm12.191,12.19L43.8,21.861a3.461,3.461,0,0,1,3.623,0Zm2.957-2.957a5.052,5.052,0,0,0-5.914,0L34.57,12.627a5.052,5.052,0,0,0,0-5.914L36.384,4.9a5.052,5.052,0,0,0,5.914,0l1.719,1.719a3.151,3.151,0,0,0-2.365,1.733,4.531,4.531,0,1,0,5.209,5.609l2.684.911a5.075,5.075,0,0,0,.842,4.029ZM43.739,12.9l.021.007,1.59.54a2.942,2.942,0,1,1-3.993-3.36A3.519,3.519,0,0,0,43.739,12.9Zm7.794,4.854a3.477,3.477,0,0,1-.508-1.653,6.181,6.181,0,0,0,1.4.759Zm7.17-4.539a4.909,4.909,0,0,1-3.79,2.5,5.786,5.786,0,0,1-.829-.058h0a4.553,4.553,0,0,1-2.945-1.611c-.016-.024-.085-.114-.1-.129a.792.792,0,0,0-.438-.364l-6.32-2.145a1.784,1.784,0,0,1-1.3-2.1v0a1.549,1.549,0,0,1,1.9-1.066L52.01,10.49a.795.795,0,0,0,.48-1.516L46.826,7.179l-.049-.049,0,0L43.843,4.2l2.521-.9.027-.01.008,0,.032-.014A5.152,5.152,0,0,1,50.39,3.2a46.048,46.048,0,0,1,4.616,2.358,7.154,7.154,0,0,0,3.7,1.258Zm3.012-.478H60.293V5.787h1.422Zm4.726,0H63.3V4.305h3.137Z" transform="translate(-29.691 -0.023)" fill="#f26b3e"/>
      </g>
    </g>
  </g>
</svg>
