<svg xmlns="http://www.w3.org/2000/svg" width="79.622" height="79.615" viewBox="0 0 79.622 79.615">
  <g id="payment-method-transparent" transform="translate(0 -0.023)" opacity="0.03">
    <g id="Group_27" data-name="Group 27" transform="translate(23.755 59.714)">
      <g id="Group_26" data-name="Group 26">
        <path id="Path_19" data-name="Path 19" d="M155.829,385.108a1.623,1.623,0,0,0-.089-.292,1.579,1.579,0,0,0-.143-.267,1.511,1.511,0,0,0-.429-.429,1.527,1.527,0,0,0-.269-.143,1.464,1.464,0,0,0-.291-.089,1.531,1.531,0,0,0-.607,0,1.511,1.511,0,0,0-.292.089,1.571,1.571,0,0,0-.267.143,1.511,1.511,0,0,0-.429.429,1.472,1.472,0,0,0-.143.267,1.5,1.5,0,0,0-.089.292,1.494,1.494,0,0,0,0,.607,1.459,1.459,0,0,0,.089.291,1.433,1.433,0,0,0,.143.269,1.513,1.513,0,0,0,.429.429,1.569,1.569,0,0,0,.267.143,1.5,1.5,0,0,0,.292.089,1.5,1.5,0,0,0,.607,0,1.458,1.458,0,0,0,.291-.089,1.529,1.529,0,0,0,.269-.143,1.514,1.514,0,0,0,.429-.429,1.533,1.533,0,0,0,.143-.269,1.571,1.571,0,0,0,.089-.291,1.494,1.494,0,0,0,0-.607Z" transform="translate(-152.75 -383.857)"/>
      </g>
    </g>
    <g id="Group_29" data-name="Group 29" transform="translate(0 48.216)">
      <g id="Group_28" data-name="Group 28">
        <path id="Path_20" data-name="Path 20" d="M71.535,323.15l-.019-.046c-1.431-3.349-4.788-4.587-8.761-3.23l-10.834,3a7.1,7.1,0,0,0-4.4-4.331l-.041-.015-11.909-4.042a12.284,12.284,0,0,0-9.91-4.56c-4.063,0-7.657,2.787-9.713,5.825H1.555A1.555,1.555,0,0,0,0,317.3v19.607a1.555,1.555,0,0,0,1.555,1.555H10.8a1.555,1.555,0,0,0,1.555-1.555v-1.343h4.336a1.555,1.555,0,0,0,1.555-1.555v-.448c2.528.22,3.359.7,5.681,2.039a94.112,94.112,0,0,0,9.343,4.77l.068.029a13.96,13.96,0,0,0,5,.943,12.4,12.4,0,0,0,5.152-1.1l23.948-8.574c.043-.015.085-.032.126-.051C69.857,330.562,73.267,327.595,71.535,323.15Zm-62.288,12.2H3.11v-16.5H9.246Zm5.891-2.9H12.357v-13.6h2.781Zm51.188-3.693-23.937,8.57-.07.027-.063.027a10.08,10.08,0,0,1-7.745.132,90.052,90.052,0,0,1-9.029-4.612c-2.545-1.467-3.771-2.175-7.234-2.461V317.921c1.474-2.416,4.333-4.889,7.415-4.889a8.974,8.974,0,0,1,7.613,3.576,1.555,1.555,0,0,0,.825.658l12.359,4.195c1.974.741,3.017,2.431,2.538,4.117a3.03,3.03,0,0,1-3.723,2.092l-13.933-4.415a1.555,1.555,0,0,0-.94,2.965l13.957,4.423.044.013a6.1,6.1,0,0,0,4.668-.542,6.1,6.1,0,0,0,2.917-3.684q.054-.189.1-.378l11.676-3.235c1.686-.576,3.9-.784,4.886,1.486C69.666,326.968,67.015,328.434,66.325,328.763Z" transform="translate(0 -309.922)"/>
      </g>
    </g>
    <g id="Group_31" data-name="Group 31" transform="translate(52.758 19.225)">
      <g id="Group_30" data-name="Group 30">
        <path id="Path_21" data-name="Path 21" d="M342.331,124.749a1.52,1.52,0,0,0-.09-.292,1.533,1.533,0,0,0-.572-.7,1.58,1.58,0,0,0-.267-.143,1.55,1.55,0,0,0-.9-.089,1.461,1.461,0,0,0-.291.089,1.539,1.539,0,0,0-.269.143,1.511,1.511,0,0,0-.429.429,1.583,1.583,0,0,0-.143.267,1.51,1.51,0,0,0-.089.292,1.494,1.494,0,0,0,0,.606,1.463,1.463,0,0,0,.089.291,1.538,1.538,0,0,0,.143.269,1.511,1.511,0,0,0,.429.429,1.535,1.535,0,0,0,.269.143,1.574,1.574,0,0,0,.291.089,1.533,1.533,0,0,0,.3.031,1.56,1.56,0,0,0,.3-.031,1.65,1.65,0,0,0,.291-.089,1.581,1.581,0,0,0,.267-.143,1.512,1.512,0,0,0,.429-.429,1.447,1.447,0,0,0,.143-.269,1.471,1.471,0,0,0,.09-.291,1.568,1.568,0,0,0,0-.606Z" transform="translate(-339.25 -123.498)"/>
      </g>
    </g>
    <g id="Group_33" data-name="Group 33" transform="translate(4.617 0.023)">
      <g id="Group_32" data-name="Group 32">
        <path id="Path_22" data-name="Path 22" d="M103.141,5.29H93.894a1.555,1.555,0,0,0-1.555,1.555V8.188H88a1.555,1.555,0,0,0-1.555,1.555v.448c-2.528-.221-3.359-.7-5.68-2.039a94.1,94.1,0,0,0-9.343-4.77l-.068-.029a13.23,13.23,0,0,0-10.155.16L54.944,5.753,49.669.479a1.555,1.555,0,0,0-2.2,0L30.152,17.8a1.542,1.542,0,0,0,0,2.2L59.744,49.588a1.68,1.68,0,0,0,2.2,0l15.81-15.81c.411.035.838.055,1.28.055,4.063,0,7.657-2.787,9.713-5.825h14.395a1.555,1.555,0,0,0,1.555-1.555V6.845A1.555,1.555,0,0,0,103.141,5.29ZM48.569,3.778l3.544,3.544a6.78,6.78,0,0,1-7.089,0ZM37,22.44,33.451,18.9,37,15.351a6.78,6.78,0,0,1,0,7.089ZM60.844,46.288,57.3,42.745a6.771,6.771,0,0,1,7.087,0ZM66.628,40.5a9.882,9.882,0,0,0-11.569,0L39.236,24.681a9.883,9.883,0,0,0,0-11.57l3.548-3.548a9.883,9.883,0,0,0,11.57,0l3.364,3.364a6.164,6.164,0,0,0-4.627,3.391A8.863,8.863,0,1,0,63.281,27.289l5.251,1.782a9.929,9.929,0,0,0,1.647,7.882ZM57.173,25.215l.041.015,3.11,1.055a5.755,5.755,0,1,1-7.811-6.573A6.885,6.885,0,0,0,57.173,25.215Zm15.247,9.5a6.8,6.8,0,0,1-.994-3.234,12.092,12.092,0,0,0,2.743,1.485Zm14.028-8.88c-1.474,2.416-4.333,4.889-7.415,4.889a11.319,11.319,0,0,1-1.622-.114H77.4a8.907,8.907,0,0,1-5.76-3.152c-.032-.047-.167-.223-.187-.253a1.55,1.55,0,0,0-.857-.713l-12.364-4.2c-1.973-.741-3.016-2.43-2.538-4.115v-.007a3.03,3.03,0,0,1,3.721-2.086L73.354,20.5a1.555,1.555,0,1,0,.94-2.965L63.213,14.022l-.1-.1,0,0L57.376,8.186,62.307,6.42l.054-.02.016-.007.063-.027a10.079,10.079,0,0,1,7.744-.132,90.084,90.084,0,0,1,9.03,4.612c2.545,1.468,3.771,2.175,7.234,2.461Zm5.891-.935H89.558V11.3h2.781Zm9.246,0H95.45V8.4h6.136Z" transform="translate(-29.691 -0.023)"/>
      </g>
    </g>
  </g>
</svg>
